<svg xmlns="http://www.w3.org/2000/svg" xmlns:xlink="http://www.w3.org/1999/xlink" width="104" zoomAndPan="magnify" viewBox="0 0 141 138.749998" height="102" preserveAspectRatio="xMidYMid meet" version="1.0"><defs><clipPath id="9e0ae4fd9d"><path d="M 0.125 0.460938 L 140.871094 0.460938 L 140.871094 138.210938 L 0.125 138.210938 Z M 0.125 0.460938 " clip-rule="nonzero"/></clipPath></defs><g clip-path="url(#9e0ae4fd9d)"><path fill="#9194A1" d="M 140.871094 138.210938 L 140.871094 81.121094 L 113.957031 81.121094 C 113.957031 73.195312 114.890625 66.019531 116.757812 59.605469 C 118.625 53.191406 121.386719 47.0625 125.046875 41.222656 C 128.703125 35.386719 133.980469 30.519531 140.871094 26.625 L 140.871094 0.460938 C 127.664062 6.226562 116.902344 13.796875 108.574219 23.167969 C 100.25 32.539062 94.078125 42.808594 90.0625 53.984375 C 86.042969 65.15625 84.03125 81.410156 84.03125 102.75 L 84.03125 138.210938 Z M 56.96875 138.210938 L 56.96875 81.121094 L 30.054688 81.121094 C 30.054688 73.195312 30.988281 66.019531 32.855469 59.605469 C 34.722656 53.191406 37.484375 47.0625 41.144531 41.222656 C 44.800781 35.386719 50.078125 30.519531 56.96875 26.625 L 56.96875 0.460938 C 43.90625 6.226562 33.175781 13.796875 24.78125 23.167969 C 16.382812 32.539062 10.175781 42.808594 6.160156 53.984375 C 2.140625 65.15625 0.128906 81.410156 0.128906 102.75 L 0.128906 138.210938 Z M 56.96875 138.210938 " fill-opacity="1" fill-rule="nonzero"/></g></svg>